<?xml version="1.0" encoding="UTF-8" standalone="no"?>
<svg
   xmlns:dc="http://purl.org/dc/elements/1.1/"
   xmlns:cc="http://creativecommons.org/ns#"
   xmlns:rdf="http://www.w3.org/1999/02/22-rdf-syntax-ns#"
   xmlns:svg="http://www.w3.org/2000/svg"
   xmlns="http://www.w3.org/2000/svg"
   viewBox="0 0 199.97467 68.537064"
   height="68.537064"
   width="199.97467"
   xml:space="preserve"
   id="svg2"
   version="1.1"><metadata
     id="metadata8"><rdf:RDF><cc:Work
         rdf:about=""><dc:format>image/svg+xml</dc:format><dc:type
           rdf:resource="http://purl.org/dc/dcmitype/StillImage" /></cc:Work></rdf:RDF></metadata><defs
     id="defs6"><clipPath
       id="clipPath20"
       clipPathUnits="userSpaceOnUse"><path
         id="path18"
         d="M 0,51.403 H 149.981 V 0 H 0 Z" /></clipPath></defs><g
     transform="matrix(1.3333333,0,0,-1.3333333,0,68.537067)"
     id="g10"><path
       id="path12"
       style="fill:#5fab20;fill-opacity:1;fill-rule:nonzero;stroke:none"
       d="M 0,0.906 H 10.376 V 50.473 H 0 Z" /><g
       id="g14"><g
         clip-path="url(#clipPath20)"
         id="g16"><g
           transform="translate(60.9204,50.3203)"
           id="g22"><path
             id="path24"
             style="fill:#5fab20;fill-opacity:1;fill-rule:nonzero;stroke:none"
             d="m 0,0 v -27.309 -9.53 -1.018 c 0,0.089 0,-3.967 -5.917,-3.967 -5.917,0 -5.852,4.327 -5.852,4.327 v 0.658 9.53 V 0 h -9.839 v -41.405 c 0,0 0.399,-8.915 15.889,-8.915 15.492,0 15.358,7.852 15.492,9.248 V 0 Z" /></g><g
           transform="translate(88.709,1.0811)"
           id="g26"><path
             id="path28"
             style="fill:#5fab20;fill-opacity:1;fill-rule:nonzero;stroke:none"
             d="m 0,0 v 27.311 9.528 1.02 c 0,-0.09 0,3.967 5.917,3.967 5.917,0 5.852,-4.328 5.852,-4.328 V 36.839 27.311 0 h 9.839 v 41.406 c 0,0 -0.399,8.916 -15.891,8.916 -15.49,0 -15.358,-7.852 -15.49,-9.249 V 0 Z" /></g><g
           transform="translate(20.8965,25.2227)"
           id="g30"><path
             id="path32"
             style="fill:#5fab20;fill-opacity:1;fill-rule:nonzero;stroke:none"
             d="M 0,0 C -1.164,2.087 0,4.388 0,4.388 L 11.834,25.25 H 1.263 L -9.84,4.987 c -1.263,-3.191 0,-5.852 0,-5.852 L 1.862,-24.316 h 11.701 z" /></g><g
           transform="translate(149.9814,11.1445)"
           id="g34"><path
             id="path36"
             style="fill:#5fab20;fill-opacity:1;fill-rule:nonzero;stroke:none"
             d="m 0,0 v 11.845 7.598 h -9.829 -7.389 v -7.598 h 7.389 V 1.817 c 0,0 -0.017,-4.259 -5.492,-4.259 -5.478,0 -6.155,3.077 -6.155,4.259 0,1.184 -0.032,27.149 -0.032,27.149 0,0 0.44,2.468 3.448,2.468 h 4.733 c 0,0 3.009,-0.27 3.009,-2.603 v -3.483 l 9.129,-0.034 v 7.236 c 0,0 0.269,7.498 -11.089,7.498 h -8.353 c 0,0 -10.681,-0.669 -10.681,-8.682 V 0 c 0,0 -0.044,-0.402 0,-1.054 0.144,-2.184 1.272,-7.177 8.306,-9.248 1.958,-0.576 4.37,-0.927 7.349,-0.927 3.164,0 5.691,0.395 7.71,1.036 6.714,2.132 7.803,6.992 7.947,9.139 C 0.044,-0.402 0,0 0,0" /></g></g></g></g></svg>